<svg width="22" height="16" viewBox="0 0 22 16" fill="none" xmlns="http://www.w3.org/2000/svg">
<g clip-path="url(#clip0_1_50295)">
<rect width="22" height="16" rx="2" fill="#249F58"/>
<path fill-rule="evenodd" clip-rule="evenodd" d="M11 2.13333L18.8571 8L11 13.8667L3.14285 8" fill="#FFDA2C"/>
<path d="M11 11.7333C13.0251 11.7333 14.6667 10.0619 14.6667 8C14.6667 5.93814 13.0251 4.26667 11 4.26667C8.97497 4.26667 7.33334 5.93814 7.33334 8C7.33334 10.0619 8.97497 11.7333 11 11.7333Z" fill="#1A47B8"/>
<path fill-rule="evenodd" clip-rule="evenodd" d="M9.42856 9.6V10.6667H10.4762V9.6H9.42856ZM11.5238 9.6V10.6667H12.5714V9.6H11.5238Z" fill="white"/>
<path fill-rule="evenodd" clip-rule="evenodd" d="M8.38095 6.4C8.38095 6.4 10.7528 6.82667 12.4625 7.5712L14.6667 8.53333" fill="white"/>
<path d="M8.38095 6.4C8.38095 6.4 10.7528 6.82667 12.4625 7.5712L14.6667 8.53333" stroke="white"/>
</g>
<defs>
<clipPath id="clip0_1_50295">
<rect width="22" height="16" fill="white"/>
</clipPath>
</defs>
</svg>
