<svg width="24" height="26" viewBox="0 0 25 24" fill="none" xmlns="http://www.w3.org/2000/svg">
<path d="M12.9056 5.88H5.12563C3.41563 5.88 2.01562 7.28 2.01562 8.99V20.35C2.01562 21.8 3.05562 22.42 4.32562 21.71L8.25562 19.52C8.67562 19.29 9.35563 19.29 9.76562 19.52L13.6956 21.71C14.9756 22.41 16.0156 21.8 16.0156 20.35V8.99C16.0156 7.28 14.6156 5.88 12.9056 5.88Z" fill="#16271C"/>
<path d="M22.0157 5.11V16.47C22.0157 17.92 20.9757 18.53 19.7057 17.83L17.7757 16.75C17.6157 16.66 17.5157 16.49 17.5157 16.31V8.99C17.5157 6.45 15.4457 4.38 12.9057 4.38H8.83571C8.46571 4.38 8.20571 3.99 8.37571 3.67C8.89571 2.68 9.93571 2 11.1257 2H18.9057C20.6157 2 22.0157 3.4 22.0157 5.11Z" fill="#16271C"/>
</svg>
