<svg width="25" height="24" viewBox="0 0 25 24" fill="none" xmlns="http://www.w3.org/2000/svg">
<path d="M11.2656 5.99996V19.91C11.2656 20.62 10.5456 21.11 9.89563 20.84C8.03562 20.06 5.72563 19.38 4.08563 19.16L3.77562 19.12C2.80562 19 2.01562 18.11 2.01562 17.14V5.24996C2.01562 4.04996 2.98563 3.07996 4.18563 3.07996H4.25562C6.13562 3.23996 8.90563 4.11996 10.7356 5.10996C11.0656 5.28996 11.2656 5.61996 11.2656 5.99996Z" fill="#16271C"/>
<path d="M19.8456 3.07996H19.7856C19.5456 3.09996 19.2856 3.12996 19.0156 3.17996C17.7856 3.37996 16.3256 3.79996 15.0156 4.31996C14.3956 4.56996 13.8156 4.83996 13.3056 5.10996C12.9756 5.28996 12.7656 5.62996 12.7656 5.99996V19.91C12.7656 20.62 13.4856 21.11 14.1356 20.84C15.9956 20.06 18.3056 19.38 19.9456 19.16L20.2556 19.12C21.2256 19 22.0156 18.11 22.0156 17.14V5.24996C22.0156 4.04996 21.0456 3.07996 19.8456 3.07996ZM19.2856 13.73C19.2856 14.12 19.0056 14.29 18.6656 14.1L17.6056 13.51C17.4956 13.45 17.3156 13.45 17.1956 13.51L16.1356 14.1C15.7956 14.29 15.5156 14.12 15.5156 13.73V10.66C15.5156 10.2 15.8956 9.81996 16.3556 9.81996H18.4556C18.9156 9.81996 19.2956 10.2 19.2956 10.66V13.73H19.2856Z" fill="#16271C"/>
</svg>
