<svg width="22" height="20" viewBox="0 0 25 24" fill="none" xmlns="http://www.w3.org/2000/svg">
<path d="M12.0156 15.75C9.94563 15.75 8.26562 14.07 8.26562 12C8.26562 9.93 9.94563 8.25 12.0156 8.25C14.0856 8.25 15.7656 9.93 15.7656 12C15.7656 14.07 14.0856 15.75 12.0156 15.75ZM12.0156 9.75C10.7756 9.75 9.76562 10.76 9.76562 12C9.76562 13.24 10.7756 14.25 12.0156 14.25C13.2556 14.25 14.2656 13.24 14.2656 12C14.2656 10.76 13.2556 9.75 12.0156 9.75Z" fill="#16271C"/>
<path d="M15.2256 22.19C15.0156 22.19 14.8056 22.16 14.5956 22.11C13.9756 21.94 13.4556 21.55 13.1256 21L13.0056 20.8C12.4156 19.78 11.6056 19.78 11.0156 20.8L10.9056 20.99C10.5756 21.55 10.0556 21.95 9.43563 22.11C8.80562 22.28 8.15563 22.19 7.60563 21.86L5.88562 20.87C5.27562 20.52 4.83563 19.95 4.64563 19.26C4.46563 18.57 4.55562 17.86 4.90562 17.25C5.19562 16.74 5.27563 16.28 5.10563 15.99C4.93563 15.7 4.50563 15.53 3.91563 15.53C2.45563 15.53 1.26562 14.34 1.26562 12.88V11.12C1.26562 9.66004 2.45563 8.47004 3.91563 8.47004C4.50563 8.47004 4.93563 8.30004 5.10563 8.01004C5.27563 7.72004 5.20562 7.26004 4.90562 6.75004C4.55562 6.14004 4.46563 5.42004 4.64563 4.74004C4.82563 4.05004 5.26562 3.48004 5.88562 3.13004L7.61562 2.14004C8.74563 1.47004 10.2356 1.86004 10.9156 3.01004L11.0356 3.21004C11.6256 4.23004 12.4356 4.23004 13.0256 3.21004L13.1356 3.02004C13.8156 1.86004 15.3056 1.47004 16.4456 2.15004L18.1656 3.14004C18.7756 3.49004 19.2156 4.06004 19.4056 4.75004C19.5856 5.44004 19.4956 6.15004 19.1456 6.76004C18.8556 7.27004 18.7756 7.73004 18.9456 8.02004C19.1156 8.31004 19.5456 8.48004 20.1356 8.48004C21.5956 8.48004 22.7856 9.67004 22.7856 11.13V12.89C22.7856 14.35 21.5956 15.54 20.1356 15.54C19.5456 15.54 19.1156 15.71 18.9456 16C18.7756 16.29 18.8456 16.75 19.1456 17.26C19.4956 17.87 19.5956 18.59 19.4056 19.27C19.2256 19.96 18.7856 20.53 18.1656 20.88L16.4356 21.87C16.0556 22.08 15.6456 22.19 15.2256 22.19ZM12.0156 18.49C12.9056 18.49 13.7356 19.05 14.3056 20.04L14.4156 20.23C14.5356 20.44 14.7356 20.59 14.9756 20.65C15.2156 20.71 15.4556 20.68 15.6556 20.56L17.3856 19.56C17.6456 19.41 17.8456 19.16 17.9256 18.86C18.0056 18.56 17.9656 18.25 17.8156 17.99C17.2456 17.01 17.1756 16 17.6156 15.23C18.0556 14.46 18.9656 14.02 20.1056 14.02C20.7456 14.02 21.2556 13.51 21.2556 12.87V11.11C21.2556 10.48 20.7456 9.96004 20.1056 9.96004C18.9656 9.96004 18.0556 9.52004 17.6156 8.75004C17.1756 7.98004 17.2456 6.97004 17.8156 5.99004C17.9656 5.73004 18.0056 5.42004 17.9256 5.12004C17.8456 4.82004 17.6556 4.58004 17.3956 4.42004L15.6656 3.43004C15.2356 3.17004 14.6656 3.32004 14.4056 3.76004L14.2956 3.95004C13.7256 4.94004 12.8956 5.50004 12.0056 5.50004C11.1156 5.50004 10.2856 4.94004 9.71562 3.95004L9.60563 3.75004C9.35563 3.33004 8.79563 3.18004 8.36563 3.43004L6.63562 4.43004C6.37562 4.58004 6.17562 4.83004 6.09562 5.13004C6.01562 5.43004 6.05562 5.74004 6.20563 6.00004C6.77563 6.98004 6.84562 7.99004 6.40562 8.76004C5.96562 9.53004 5.05562 9.97004 3.91563 9.97004C3.27563 9.97004 2.76562 10.48 2.76562 11.12V12.88C2.76562 13.51 3.27563 14.03 3.91563 14.03C5.05562 14.03 5.96562 14.47 6.40562 15.24C6.84562 16.01 6.77563 17.02 6.20563 18C6.05562 18.26 6.01562 18.57 6.09562 18.87C6.17562 19.17 6.36563 19.41 6.62563 19.57L8.35563 20.56C8.56563 20.69 8.81562 20.72 9.04562 20.66C9.28562 20.6 9.48563 20.44 9.61563 20.23L9.72563 20.04C10.2956 19.06 11.1256 18.49 12.0156 18.49Z" fill="#16271C"/>
</svg>
