<svg width="20" height="22" viewBox="0 0 24 24" fill="none" xmlns="http://www.w3.org/2000/svg">
<path d="M9.16986 15.5801C8.97986 15.5801 8.78986 15.5101 8.63986 15.3601C8.34986 15.0701 8.34986 14.5901 8.63986 14.3001L14.2999 8.64011C14.5899 8.35011 15.0699 8.35011 15.3599 8.64011C15.6499 8.93011 15.6499 9.41011 15.3599 9.70011L9.69986 15.3601C9.55986 15.5101 9.35986 15.5801 9.16986 15.5801Z" fill="black"/>
<path d="M14.8299 15.5801C14.6399 15.5801 14.4499 15.5101 14.2999 15.3601L8.63986 9.70011C8.34986 9.41011 8.34986 8.93011 8.63986 8.64011C8.92986 8.35011 9.40986 8.35011 9.69986 8.64011L15.3599 14.3001C15.6499 14.5901 15.6499 15.0701 15.3599 15.3601C15.2099 15.5101 15.0199 15.5801 14.8299 15.5801Z" fill="black"/>
</svg>
