<svg width="25" height="24" viewBox="0 0 25 24" fill="none" xmlns="http://www.w3.org/2000/svg">
<path d="M21 10.19H18.11C15.74 10.19 13.81 8.26 13.81 5.89V3C13.81 2.45 13.36 2 12.81 2H8.57C5.49 2 3 4 3 7.57V16.43C3 20 5.49 22 8.57 22H16.43C19.51 22 22 20 22 16.43V11.19C22 10.64 21.55 10.19 21 10.19ZM12.03 13.53C11.88 13.68 11.69 13.75 11.5 13.75C11.31 13.75 11.12 13.68 10.97 13.53L10.25 12.81V17C10.25 17.41 9.91 17.75 9.5 17.75C9.09 17.75 8.75 17.41 8.75 17V12.81L8.03 13.53C7.74 13.82 7.26 13.82 6.97 13.53C6.68 13.24 6.68 12.76 6.97 12.47L8.97 10.47C9.04 10.41 9.11 10.36 9.19 10.32C9.21 10.31 9.24 10.3 9.26 10.29C9.32 10.27 9.38 10.26 9.45 10.25C9.48 10.25 9.5 10.25 9.53 10.25C9.61 10.25 9.69 10.27 9.77 10.3C9.78 10.3 9.78 10.3 9.79 10.3C9.87 10.33 9.95 10.39 10.01 10.45C10.02 10.46 10.03 10.46 10.03 10.47L12.03 12.47C12.32 12.76 12.32 13.24 12.03 13.53Z" fill="#878672"/>
<path d="M17.9299 8.80999C18.8799 8.81999 20.1999 8.81999 21.3299 8.81999C21.8999 8.81999 22.1999 8.14999 21.7999 7.74999C20.3599 6.29999 17.7799 3.68999 16.2999 2.20999C15.8899 1.79999 15.1799 2.07999 15.1799 2.64999V6.13999C15.1799 7.59999 16.4199 8.80999 17.9299 8.80999Z" fill="#878672"/>
</svg>
