<svg width="25" height="24" viewBox="0 0 25 24" fill="none" xmlns="http://www.w3.org/2000/svg">
<path d="M12.47 22.75C6.54997 22.75 1.71997 17.93 1.71997 12C1.71997 6.07 6.54997 1.25 12.47 1.25C18.39 1.25 23.22 6.07 23.22 12C23.22 17.93 18.4 22.75 12.47 22.75ZM12.47 2.75C7.36997 2.75 3.21997 6.9 3.21997 12C3.21997 17.1 7.36997 21.25 12.47 21.25C17.57 21.25 21.72 17.1 21.72 12C21.72 6.9 17.57 2.75 12.47 2.75Z" fill="#878672"/>
<path d="M11.06 16.99C10.62 16.99 10.2 16.88 9.82999 16.67C8.96999 16.17 8.48999 15.19 8.48999 13.91V10.56C8.48999 9.27999 8.95999 8.29999 9.81999 7.79999C10.68 7.29999 11.77 7.37999 12.88 8.01999L15.78 9.68999C16.89 10.33 17.5 11.23 17.5 12.23C17.5 13.22 16.89 14.13 15.78 14.77L12.88 16.44C12.26 16.81 11.63 16.99 11.06 16.99ZM11.06 8.96999C10.88 8.96999 10.71 9.00999 10.58 9.08999C10.2 9.30999 9.98999 9.83999 9.98999 10.56V13.91C9.98999 14.62 10.2 15.16 10.58 15.37C10.95 15.59 11.52 15.5 12.14 15.15L15.04 13.48C15.66 13.12 16.01 12.67 16.01 12.24C16.01 11.81 15.65 11.36 15.04 11L12.14 9.32999C11.74 9.08999 11.37 8.96999 11.06 8.96999Z" fill="#878672"/>
</svg>
