<svg width="25" height="24" viewBox="0 0 25 24" fill="none" xmlns="http://www.w3.org/2000/svg">
<path d="M14.85 2H10.15C9.11001 2 8.26001 2.84 8.26001 3.88V4.82C8.26001 5.86 9.10001 6.7 10.14 6.7H14.85C15.89 6.7 16.73 5.86 16.73 4.82V3.88C16.74 2.84 15.89 2 14.85 2Z" fill="#16271C"/>
<path d="M17.74 4.81998C17.74 6.40998 16.44 7.70998 14.85 7.70998H10.15C8.56004 7.70998 7.26004 6.40998 7.26004 4.81998C7.26004 4.25998 6.66004 3.90998 6.16004 4.16998C4.75004 4.91998 3.79004 6.40998 3.79004 8.11998V17.53C3.79004 19.99 5.80004 22 8.26004 22H16.74C19.2 22 21.21 19.99 21.21 17.53V8.11998C21.21 6.40998 20.25 4.91998 18.84 4.16998C18.34 3.90998 17.74 4.25998 17.74 4.81998ZM16.03 17.53C15.88 17.68 15.69 17.75 15.5 17.75C15.31 17.75 15.12 17.68 14.97 17.53L10.25 12.81V14C10.25 14.41 9.91004 14.75 9.50004 14.75C9.09004 14.75 8.75004 14.41 8.75004 14V11C8.75004 10.59 9.09004 10.25 9.50004 10.25H12.5C12.91 10.25 13.25 10.59 13.25 11C13.25 11.41 12.91 11.75 12.5 11.75H11.31L16.03 16.47C16.32 16.76 16.32 17.24 16.03 17.53Z" fill="#16271C"/>
</svg>
