<svg width="25" height="24" viewBox="0 0 25 24" fill="none" xmlns="http://www.w3.org/2000/svg">
<path d="M19.1355 14.9399L19.4555 15.5899C19.6155 15.9099 20.0255 16.2099 20.3655 16.2699L20.7955 16.3399C22.1055 16.5599 22.4055 17.5199 21.4755 18.4599L21.0755 18.8599C20.8055 19.1299 20.6655 19.6499 20.7455 20.0299L20.7955 20.2699C21.1555 21.8499 20.3155 22.4599 18.9455 21.6299L18.6555 21.4499C18.3055 21.2399 17.7255 21.2399 17.3755 21.4499L17.0855 21.6299C15.7055 22.4599 14.8755 21.8499 15.2355 20.2699L15.2855 20.0299C15.3655 19.6599 15.2255 19.1299 14.9555 18.8599L14.5555 18.4599C13.6255 17.5099 13.9255 16.5599 15.2355 16.3399L15.6655 16.2699C16.0155 16.2099 16.4155 15.9099 16.5755 15.5899L16.8955 14.9399C17.5155 13.6899 18.5155 13.6899 19.1355 14.9399Z" fill="#16271C"/>
<path d="M16.2056 2H7.82562C4.18562 2 2.01562 4.17 2.01562 7.81V16.19C2.01562 19.83 4.18562 22 7.82562 22H13.1056C13.4556 22 13.7056 21.64 13.6656 21.29C13.6256 20.91 13.6456 20.46 13.7656 19.94C13.7856 19.87 13.7656 19.79 13.7056 19.73L13.4856 19.51C12.6356 18.65 12.3256 17.61 12.6256 16.66C12.9356 15.72 13.7956 15.06 14.9856 14.86L15.2856 14.81L15.5556 14.27C16.1056 13.15 17.0056 12.5 18.0156 12.5C19.0256 12.5 19.9256 13.15 20.4756 14.27L20.6256 14.58C20.6956 14.73 20.8356 14.83 20.9956 14.86C21.0856 14.88 21.1756 14.9 21.2656 14.92C21.6156 15.01 22.0156 14.73 22.0156 14.36V7.81C22.0156 4.17 19.8456 2 16.2056 2ZM16.2756 8.96L13.9656 11.94C13.6756 12.31 13.2656 12.55 12.7956 12.6C12.3356 12.66 11.8656 12.53 11.5056 12.24L9.67562 10.82C9.60562 10.76 9.52563 10.76 9.48563 10.77C9.44563 10.77 9.37563 10.79 9.31563 10.87L6.93563 13.96C6.78562 14.15 6.56563 14.25 6.33563 14.25C6.17563 14.25 6.01562 14.2 5.87563 14.09C5.54563 13.84 5.48562 13.37 5.73562 13.04L8.11563 9.95C8.40563 9.58 8.81563 9.34 9.28563 9.28C9.75563 9.22 10.2156 9.35 10.5856 9.64L12.4156 11.08C12.4856 11.14 12.5556 11.13 12.6056 11.13C12.6456 11.13 12.7156 11.11 12.7756 11.03L15.0856 8.05C15.3356 7.72 15.8056 7.66 16.1356 7.92C16.4756 8.17 16.5256 8.64 16.2756 8.96Z" fill="#16271C"/>
</svg>
