<svg width="26" height="24" viewBox="0 0 25 24" fill="none" xmlns="http://www.w3.org/2000/svg">
<rect x="8" y="6" width="11" height="11" fill="#16271C"/>
<path d="M13.8756 3.85999H10.1556C5.66563 3.85999 2.01562 7.50999 2.01562 12C2.01562 16.49 5.66563 20.14 10.1556 20.14H13.8756C18.3656 20.14 22.0156 16.49 22.0156 12C22.0156 7.50999 18.3656 3.85999 13.8756 3.85999ZM13.8756 16.42C11.4356 16.42 9.45562 14.44 9.45562 12C9.45562 9.55999 11.4356 7.57999 13.8756 7.57999C16.3156 7.57999 18.2956 9.55999 18.2956 12C18.2956 14.44 16.3156 16.42 13.8756 16.42Z" fill="#878672"/>
</svg>
