<svg width="22" height="20" viewBox="0 0 25 24" fill="none" xmlns="http://www.w3.org/2000/svg">
<path d="M8.01562 22.3199C7.73562 22.3199 7.44561 22.2499 7.18561 22.1099C6.61561 21.8099 6.26562 21.2099 6.26562 20.5699V19.15C3.24563 18.84 1.26562 16.6199 1.26562 13.4399V7.43994C1.26562 3.99994 3.57562 1.68994 7.01562 1.68994H17.0156C20.4556 1.68994 22.7656 3.99994 22.7656 7.43994V13.4399C22.7656 16.8799 20.4556 19.1899 17.0156 19.1899H13.2456L8.9856 22.03C8.6956 22.22 8.35563 22.3199 8.01562 22.3199ZM7.01562 3.17993C4.43563 3.17993 2.76562 4.84993 2.76562 7.42993V13.43C2.76562 16.01 4.43563 17.68 7.01562 17.68C7.42562 17.68 7.76562 18.02 7.76562 18.43V20.56C7.76562 20.69 7.84563 20.75 7.89563 20.78C7.94563 20.81 8.04564 20.84 8.15564 20.77L12.6057 17.81C12.7257 17.73 12.8756 17.68 13.0256 17.68H17.0256C19.6056 17.68 21.2756 16.01 21.2756 13.43V7.42993C21.2756 4.84993 19.6056 3.17993 17.0256 3.17993H7.01562Z" fill="#16271C"/>
<path d="M12.0154 12.11C11.6054 12.11 11.2654 11.77 11.2654 11.36V11.15C11.2654 9.99002 12.1154 9.42001 12.4354 9.20001C12.8054 8.95001 12.9254 8.78002 12.9254 8.52002C12.9254 8.02002 12.5154 7.60999 12.0154 7.60999C11.5154 7.60999 11.1055 8.02002 11.1055 8.52002C11.1055 8.93002 10.7655 9.27002 10.3555 9.27002C9.94547 9.27002 9.60547 8.93002 9.60547 8.52002C9.60547 7.19002 10.6854 6.10999 12.0154 6.10999C13.3454 6.10999 14.4254 7.19002 14.4254 8.52002C14.4254 9.66002 13.5855 10.23 13.2755 10.44C12.8855 10.7 12.7654 10.87 12.7654 11.15V11.36C12.7654 11.78 12.4254 12.11 12.0154 12.11Z" fill="#16271C"/>
<path d="M12.0156 14.6C11.5956 14.6 11.2656 14.26 11.2656 13.85C11.2656 13.44 11.6056 13.1 12.0156 13.1C12.4256 13.1 12.7656 13.44 12.7656 13.85C12.7656 14.26 12.4356 14.6 12.0156 14.6Z" fill="#16271C"/>
</svg>
